<svg width="4001" height="1024" xmlns="http://www.w3.org/2000/svg" class="icon">
 <defs>
  <style type="text/css"/>
  <filter id="svg_13_blur">
   <feGaussianBlur stdDeviation="0" in="SourceGraphic"/>
  </filter>
 </defs>
 <g>
  <title>background</title>
  <rect fill="none" id="canvas_background" height="1026" width="4003" y="-1" x="-1"/>
 </g>
 <g>
  <title>Layer 1</title>
  <text stroke="null" transform="matrix(2.7093105284844,0,0,2.8885599108441578,-3121.718694772704,-806.092297322324) " font-weight="bold" xml:space="preserve" text-anchor="start" font-family="'Trebuchet MS', Gadget, sans-serif" font-size="250" id="svg_9" y="567.727519" x="1674.008666" stroke-opacity="null" stroke-width="0" fill="#ffffff">GoCloud</text>
  <path stroke="null" id="svg_11" d="m285.398511,1048.799562c-162.244663,0 -293.832773,-149.038921 -293.832773,-332.799973l0,0c0.097944,-147.485855 84.917671,-271.731178 202.107976,-315.272508l0,0c4.064687,-125.354656 94.859014,-225.416515 206.466495,-225.527448l0,0c35.749654,0 69.295562,10.538666 98.433979,28.676264l0,0c61.998715,-116.757324 174.8305,-195.020784 304.018976,-195.076251l0,0c193.292992,0.110933 350.493526,174.997319 354.94999,392.648501l0,0c115.672168,44.595196 198.924787,168.285853 199.022732,314.551441l0,0c0,183.761052 -131.58811,332.799973 -293.832773,332.799973l0,0l-777.334601,0l0,0zm812.986311,-550.506622c-25.024758,-5.269333 -42.311919,-31.172264 -39.912285,-59.848528l0,0c0.832526,-9.484799 1.322247,-18.636798 1.322247,-27.566931l0,0c-0.342805,-160.797854 -115.182447,-290.922643 -257.152648,-291.14451l0,0c-110.138318,-0.110933 -203.822,78.651727 -240.502125,189.141318l0,0c-5.9746,17.915732 -19.882684,31.283197 -36.631152,34.943997l0,0c-16.650524,3.6608 -33.986657,-2.884266 -45.397163,-17.139199l0,0c-20.372406,-25.126398 -48.286519,-40.54613 -79.971486,-40.54613l0,0c-59.990858,0.110933 -108.522237,55.078395 -108.718126,123.025057l0,0c0,7.543466 0.832526,15.308799 2.203746,23.517865l0,0c2.399634,14.754132 -0.391777,29.951998 -7.982457,42.265597l0,0c-7.59068,12.369066 -19.197075,20.578132 -32.174689,22.963198l0,0c-93.047045,17.361065 -164.154576,108.104524 -164.056632,218.039449l0,0c0.195889,122.525857 87.758055,221.589315 195.937487,221.922115l0,0l777.383573,0c108.179433,-0.3328 195.594683,-99.396259 195.839543,-221.922115l0,0c0.195889,-108.548258 -69.050702,-198.57065 -160.187833,-217.651182l0,0" stroke-opacity="null" stroke-width="NaN" fill="#ffffff"/>
  <path stroke="null" filter="url(#svg_13_blur)" transform="rotate(-45 854.3663330078127,591.4490966796875) " id="svg_13" d="m787.347494,595.767617c16.741781,0 32.482754,6.701667 44.307521,18.859214c11.851963,12.163108 18.368095,28.369463 18.368095,45.615828l25.808886,0c0,-50.098437 -39.70054,-90.847909 -88.489941,-90.847909l0,26.372867l0.005439,0zm0.032635,-46.761507c59.68407,0 108.228708,49.914906 108.228708,111.264357l25.798008,0c0,-75.892903 -60.124643,-137.642785 -134.032155,-137.642785l0,26.378429l0.005439,0zm35.680989,92.827821c0,10.094212 -8.001027,18.280813 -17.867691,18.280813s-17.867691,-8.186601 -17.867691,-18.280813c0,-10.083089 8.001027,-18.26969 17.867691,-18.26969s17.867691,8.181039 17.867691,18.26969z" stroke-opacity="null" stroke-width="NaN" fill="#ffffff"/>
  <path stroke="null" id="svg_14" d="m844.392903,422.686718c-62.131173,0 -116.97584,30.981706 -150.692252,78.35152c-33.664179,-47.369814 -88.534963,-78.35152 -150.692252,-78.35152c-102.481178,0 -185.557791,83.946172 -185.557791,187.500016c0,103.553844 83.076613,187.500016 185.557791,187.500016c62.131173,0 117.001957,-31.008096 150.692252,-78.37791c33.690296,47.369814 88.561079,78.37791 150.692252,78.37791c102.507295,0 185.557791,-83.972562 185.557791,-187.500016c0,-103.580234 -83.076613,-187.500016 -185.557791,-187.500016zm-0.026117,341.141831c-83.860108,0 -152.024194,-68.877557 -152.024194,-153.615425c0,-84.790648 68.164086,-153.694595 152.024194,-153.694595c83.912341,0 152.102544,68.903947 152.102544,153.694595c0,84.737868 -68.216319,153.615425 -152.102544,153.615425z" stroke-opacity="null" stroke-width="NaN" fill="#ffffff"/>
 </g>
</svg>