<svg width="4001" height="1024" xmlns="http://www.w3.org/2000/svg" class="icon">
 <defs>
  <style type="text/css"/>
 </defs>
 <g>
  <title>background</title>
  <rect fill="none" id="canvas_background" height="1026" width="4003" y="-1" x="-1"/>
 </g>
 <g>
  <title>Layer 1</title>
  <text stroke="null" transform="matrix(2.7093105284844,0,0,2.8885599108441578,-3121.718694772704,-806.092297322324) " font-weight="bold" xml:space="preserve" text-anchor="start" font-family="'Trebuchet MS', Gadget, sans-serif" font-size="250" id="svg_9" y="567.727519" x="1674.008666" stroke-opacity="null" stroke-width="0" fill="#000000">GoCloud</text>
  <path stroke="null" id="svg_11" d="m285.398511,1048.799562c-162.244663,0 -293.832773,-149.038921 -293.832773,-332.799973l0,0c0.097944,-147.485855 84.917671,-271.731178 202.107976,-315.272508l0,0c4.064687,-125.354656 94.859014,-225.416515 206.466495,-225.527448l0,0c35.749654,0 69.295562,10.538666 98.433979,28.676264l0,0c61.998715,-116.757324 174.8305,-195.020784 304.018976,-195.076251l0,0c193.292992,0.110933 350.493526,174.997319 354.94999,392.648501l0,0c115.672168,44.595196 198.924787,168.285853 199.022732,314.551441l0,0c0,183.761052 -131.58811,332.799973 -293.832773,332.799973l0,0l-777.334601,0l0,0zm812.986311,-550.506622c-25.024758,-5.269333 -42.311919,-31.172264 -39.912285,-59.848528l0,0c0.832526,-9.484799 1.322247,-18.636798 1.322247,-27.566931l0,0c-0.342805,-160.797854 -115.182447,-290.922643 -257.152648,-291.14451l0,0c-110.138318,-0.110933 -203.822,78.651727 -240.502125,189.141318l0,0c-5.9746,17.915732 -19.882684,31.283197 -36.631152,34.943997l0,0c-16.650524,3.6608 -33.986657,-2.884266 -45.397163,-17.139199l0,0c-20.372406,-25.126398 -48.286519,-40.54613 -79.971486,-40.54613l0,0c-59.990858,0.110933 -108.522237,55.078395 -108.718126,123.025057l0,0c0,7.543466 0.832526,15.308799 2.203746,23.517865l0,0c2.399634,14.754132 -0.391777,29.951998 -7.982457,42.265597l0,0c-7.59068,12.369066 -19.197075,20.578132 -32.174689,22.963198l0,0c-93.047045,17.361065 -164.154576,108.104524 -164.056632,218.039449l0,0c0.195889,122.525857 87.758055,221.589315 195.937487,221.922115l0,0l777.383573,0c108.179433,-0.3328 195.594683,-99.396259 195.839543,-221.922115l0,0c0.195889,-108.548258 -69.050702,-198.57065 -160.187833,-217.651182l0,0" stroke-opacity="null" stroke-width="NaN" fill="#000000"/>
  <path transform="rotate(-5 684.4512329101561,603.1206054687508) " stroke="null" id="svg_18" d="m751.847934,451.708112l-259.816047,137.063295l256.604113,47.087741l-237.176951,147.149245l-95.757889,-24.848382l67.917719,141.835687l269.911604,-61.88205l-113.961011,-25.866403l309.45423,-211.353887l-282.876104,-38.306443l273.162643,-142.82211l-155.817161,-21.443996l169.708234,-90.770917l-62.343603,-1.304512l-263.353586,124.527944l124.343785,20.934827l0.000024,-0.00004z" stroke-opacity="null" stroke-width="NaN" fill="#000000"/>
 </g>
</svg>