<svg width="3741" height="894.0000000000001" xmlns="http://www.w3.org/2000/svg" class="icon">
 <defs>
  <style type="text/css"/>
 </defs>
 <g>
  <title>background</title>
  <rect fill="none" id="canvas_background" height="896" width="3743" y="-1" x="-1"/>
 </g>
 <g>
  <title>Layer 1</title>
  <text stroke="null" transform="matrix(2.7093105284844,0,0,2.8885599108441578,-3121.718694772704,-806.092297322324) " font-weight="bold" xml:space="preserve" text-anchor="start" font-family="'Trebuchet MS', Gadget, sans-serif" font-size="250" id="svg_9" y="537.435592" x="1577.1205" stroke-opacity="null" stroke-width="0" fill="#ffffff">GoCloud</text>
  <path stroke="null" id="svg_11" d="m239.65529,898.249812c-136.986781,0 -248.089552,-128.438573 -248.089552,-286.79994l0,0c0.082697,-127.100173 71.697881,-234.172151 170.644264,-271.695143l0,0c3.431905,-108.027977 80.091577,-194.259159 174.324259,-194.354759l0,0c30.184229,0 58.507786,9.081998 83.11,24.712595l0,0c52.346896,-100.618979 147.613284,-168.064765 256.68999,-168.112565l0,0c163.201577,0.0956 295.929487,150.808968 299.692179,338.376129l0,0c97.664587,38.431192 167.956627,145.02517 168.039323,271.073743l0,0c0,158.361367 -111.102771,286.79994 -248.089552,286.79994l0,0l-656.32091,0l0,0zm686.422443,-474.414901c-21.12896,-4.540999 -35.724896,-26.863594 -33.698831,-51.576189l0,0c0.70292,-8.173798 1.116403,-16.060797 1.116403,-23.756595l0,0c-0.289438,-138.572171 -97.251104,-250.710947 -217.119706,-250.902147l0,0c-92.992234,-0.0956 -172.091453,67.780386 -203.061298,162.997966l0,0c-5.044488,15.439397 -16.787393,26.959194 -30.928498,30.113994l0,0c-14.058408,3.154799 -28.695692,-2.485599 -38.329836,-14.770197l0,0c-17.200876,-21.653395 -40.769383,-34.941793 -67.521706,-34.941793l0,0c-50.651617,0.0956 -91.627741,47.46539 -91.793134,106.020378l0,0c0,6.500799 0.70292,13.192797 1.860672,20.267196l0,0c2.026065,12.714797 -0.330786,25.811995 -6.739766,36.423592l0,0c-6.40898,10.659398 -16.208517,17.733796 -27.165806,19.789196l0,0c-78.561692,14.961397 -138.599363,93.16218 -138.516667,187.901761l0,0c0.165393,105.590178 74.09608,190.96096 165.434383,191.24776l0,0l656.362259,0c91.338303,-0.2868 165.144945,-85.657582 165.351687,-191.24776l0,0c0.165393,-93.54458 -58.301045,-171.123964 -135.250154,-187.567161l0,0" stroke-opacity="null" stroke-width="NaN" fill="#ffffff"/>
  <path stroke="null" transform="rotate(-5 568.8261718750005,503.1205139160154) " id="svg_18" d="m622.619015,382.926864l-207.372784,108.803069l204.809171,37.379013l-189.303337,116.80946l-76.429382,-19.725049l54.208686,112.591472l215.430576,-49.122976l-90.958247,-20.53317l246.991616,-167.776147l-225.778222,-30.408276l218.0254,-113.37451l-124.36583,-17.022593l135.453023,-72.055427l-49.759692,-1.035543l-210.196279,98.852304l99.245282,16.618405l0.000019,-0.000032z" stroke-opacity="null" stroke-width="NaN" fill="#ffffff"/>
 </g>
</svg>