<svg width="4101" height="1024" xmlns="http://www.w3.org/2000/svg" class="icon">
 <defs>
  <style type="text/css"/>
 </defs>
 <g>
  <title>background</title>
  <rect fill="none" id="canvas_background" height="1026" width="4103" y="-1" x="-1"/>
 </g>
 <g>
  <title>Layer 1</title>
  <path id="svg_1" fill="#ffffff" d="m311.65217,934.95652l801.39131,0l0,89.04348l-801.39131,0l0,-89.04348zm801.39131,89.04348l0,-89.04348a222.6087,222.6087 0 0 0 222.60869,-222.60869l89.04348,0a311.65217,311.65217 0 0 1 -311.65217,311.65217zm-801.39131,0a311.65217,311.65217 0 0 1 -311.65217,-311.65217l89.04348,0a222.6087,222.6087 0 0 0 222.60869,222.60869l0,89.04348zm1113.04348,-311.65217l-89.04348,0a222.6087,222.6087 0 0 0 -166.95652,-214.59479l-33.3913,-8.01391l0,-44.52174a222.6087,222.6087 0 0 0 -222.6087,-222.60869a228.39652,228.39652 0 0 0 -51.64522,6.67826l-28.93913,7.12348l-17.36347,-24.48696a288.94609,288.94609 0 0 0 -525.35653,166.5113l0,111.30435l-33.3913,8.45913a222.6087,222.6087 0 0 0 -166.95652,214.14957l-89.04348,0a311.65217,311.65217 0 0 1 200.34783,-290.28174l0,-44.52174a377.98957,377.98957 0 0 1 667.82608,-241.30783a292.06261,292.06261 0 0 1 44.52174,-3.56174a311.65217,311.65217 0 0 1 311.65218,288.50087a311.65217,311.65217 0 0 1 200.34782,291.17218z"/>
  <text stroke="#000" transform="matrix(1.9311843790681136,0,0,2.027859933300988,-523.1409441089313,-965.4285466751022) " font-weight="bold" xml:space="preserve" text-anchor="start" font-family="'Trebuchet MS', Gadget, sans-serif" font-size="250" id="svg_3" y="914.48156" x="457.568074" stroke-width="0" fill="#ffffff">GO</text>
  <text stroke="null" transform="matrix(2.7093105284844,0,0,2.8885599108441578,-3121.718694772704,-806.092297322324) " font-weight="bold" xml:space="preserve" text-anchor="start" font-family="'Trebuchet MS', Gadget, sans-serif" font-size="250" id="svg_9" y="564.265586" x="1698.00001" stroke-opacity="null" stroke-width="0" fill="#ffffff">GoCloud</text>
 </g>
</svg>